<?xml version="1.0" encoding="UTF-8"?>
<!DOCTYPE svg PUBLIC "-//W3C//DTD SVG 1.1//EN" "http://www.w3.org/Graphics/SVG/1.1/DTD/svg11.dtd">
<!-- Creator: CorelDRAW X7 -->
<svg xmlns="http://www.w3.org/2000/svg" xml:space="preserve" width="38.7772mm" height="89.0692mm" version="1.1" style="shape-rendering:geometricPrecision; text-rendering:geometricPrecision; image-rendering:optimizeQuality; fill-rule:evenodd; clip-rule:evenodd"
viewBox="0 0 3878 8907"
 xmlns:xlink="http://www.w3.org/1999/xlink">
 <defs>
  <style type="text/css">
   <![CDATA[
    .fil4 {fill:#E5097F}
    .fil2 {fill:#E98619}
    .fil8 {fill:#FDEC03}
    .fil1 {fill:#1F1B20}
    .fil7 {fill:#235C75}
    .fil0 {fill:#781A1A}
    .fil3 {fill:#F7CD86}
    .fil6 {fill:white}
    .fil5 {fill:black}
   ]]>
  </style>
 </defs>
 <g id="Layer_x0020_1">
  <metadata id="CorelCorpID_0Corel-Layer"/>
  <g id="_2484345762880">
   <ellipse class="fil0" transform="matrix(0.338911 0.0656021 -0.0736517 0.380496 1540.83 8630.25)" rx="3956" ry="251"/>
   <path class="fil1" d="M1234 631c0,0 1,0 1,0 1,-41 8,-86 16,-114 6,-24 17,-39 20,-59 -32,-11 -59,-15 -82,-41 -9,-10 -11,-9 -19,-17 -13,-13 -38,-73 -40,-100 -2,-42 13,-84 -22,-112 -4,-3 -38,-35 -39,-37 -11,-21 3,-40 24,-44 24,-4 105,13 133,19 60,11 121,38 164,80l39 37c33,38 35,46 53,87 17,0 46,-12 63,-18 14,-4 14,-6 29,-10 41,-9 158,-23 165,-25 12,-43 8,-57 33,-98 34,-56 26,-36 56,-74 18,-24 26,-64 45,-90 25,-38 46,6 63,27 19,24 12,3 25,37 6,16 15,20 22,37 9,20 15,45 25,62 13,24 25,80 32,108 9,41 4,63 -5,107 29,15 57,108 62,142 11,63 4,80 -2,141 -2,14 -1,12 3,21 3,4 6,10 9,15 25,41 89,76 131,96 32,15 82,2 68,39 -7,17 -17,12 -37,14 -14,1 -29,-1 -42,3 7,6 63,29 76,32 58,15 44,-10 83,3l-6 28c-22,5 -25,11 -44,19 -19,8 -25,14 -40,21l-54 24c-7,3 -16,2 -22,7 -6,4 0,-7 -7,8 20,16 60,7 81,12 20,37 -33,40 -59,46 -15,4 -30,1 -38,11 24,24 50,3 40,44 -22,11 -41,5 -63,13 -6,-4 -1,-6 -10,-8 -6,-2 -12,0 -17,0 5,3 6,2 10,4 7,4 2,0 7,6 -29,-6 -81,-29 -101,-28 0,18 14,22 -7,41 -32,7 -54,-13 -75,16 3,8 42,45 49,54 29,38 26,44 39,62 35,50 104,46 145,73 22,15 48,25 65,44l43 56c24,41 12,137 -64,143 -12,0 -44,-13 -57,-19 -146,-58 -139,-27 -232,-54 -23,-7 -84,-44 -101,-62 -13,-13 -10,-14 -16,-32 -4,-13 -8,-21 -12,-35 -14,-54 -14,-55 -41,-102 -6,-11 -8,-19 -14,-31 -25,0 -36,11 -63,11 -68,0 -77,32 -214,-35 -1,36 4,84 -3,123 -16,83 -9,74 25,129l41 58c6,9 10,19 18,29 23,31 40,59 51,93 9,32 3,105 -11,132 -30,59 -128,98 -177,40 -11,-13 -25,-24 -33,-38 -11,-21 -13,-24 -27,-42 -11,-13 -15,-26 -24,-41 -5,-10 -10,-12 -15,-20 -6,-13 -2,-11 -11,-23l-31 -37c-8,-7 -14,-8 -21,-16 -25,-29 -16,-54 -19,-74 -15,16 -52,111 -95,166 -42,52 -75,79 -124,121 -44,38 -88,75 -135,103l-73 44c-75,40 -81,58 -105,73 -13,8 -22,8 -38,20l-132 108c-26,22 -47,32 -58,68 -42,143 -68,157 -73,316 -4,137 24,242 63,371 29,94 57,154 102,239 14,26 26,49 40,75 15,26 24,56 35,80 6,14 14,24 21,37 32,63 43,100 69,159 24,52 28,76 46,123 13,32 32,147 35,181 7,68 1,106 4,151 1,11 3,17 0,28 -4,13 -8,5 -6,22 23,17 25,2 46,29 -2,23 -14,50 -17,76 -6,44 -1,91 7,134 3,21 26,58 -5,68l-15 5c-2,33 40,112 52,150 6,18 9,24 15,38 6,14 8,22 15,35 11,23 15,45 28,71 34,69 63,142 97,210 10,18 21,53 36,68 14,-2 24,-9 34,-15 14,-8 14,-10 24,-28 14,-26 33,-24 55,-43 8,-7 3,-5 15,-9 26,-9 22,-5 49,-21 62,-34 64,-47 101,-71 22,-14 45,-39 65,-60 64,-66 110,-178 180,-234 11,-9 53,-10 73,-16 21,-5 49,-15 70,-22l110 -26c39,-10 40,-56 93,-50 28,3 67,7 72,32 -13,10 -8,-1 -16,12l3 13c12,-2 5,-1 14,-8 17,-14 47,-16 70,-20 33,-5 53,-15 77,-29l16 -78c-94,-25 -200,-65 -272,-112 -78,-52 -166,-112 -232,-176 -55,-54 -112,-164 -137,-239 -16,-46 -18,-83 -25,-129 -2,-15 -3,-57 -6,-67 -17,-1 -19,5 -40,0 -17,-4 -55,-19 -65,-32 -31,-40 12,-37 27,-63l-12 -4c-71,-22 10,-59 -60,-111 -8,-6 -13,-11 -21,-17l-34 -22c-9,-8 -23,-16 -15,-32 24,-27 43,6 60,-21 -10,-9 -14,-8 -24,-16 -12,-9 -19,-27 -31,-36 -17,-10 -34,-5 -25,-33 15,-51 31,-29 37,-57 -14,-8 -28,-13 -38,-22 -10,-9 -26,-18 -36,-24 5,-24 21,-31 32,-47 7,-9 10,-17 17,-24 8,-8 11,-7 19,-17l-5 -3c-1,0 -2,-1 -3,-1l-19 -11c-35,-41 31,-81 62,-112 9,-10 9,-11 20,-19 8,-6 14,-7 20,-16 -11,-15 -19,-16 -30,-32 -9,-13 -16,-27 -4,-44 30,-46 43,13 81,-9 -2,-16 -16,-26 -30,-39 -10,-10 -25,-27 -33,-38 -8,-11 -15,-32 -22,-46 -10,-24 -9,-22 7,-43 27,6 15,20 56,25 57,8 108,-25 124,-84 -15,-23 -42,-36 -30,-74 11,-35 24,-48 60,-53 24,-3 20,2 43,-7l57 -18c21,-7 36,-4 57,-14 -7,-10 -28,-15 -36,-23 3,-25 98,-88 119,-97 45,-18 96,-12 143,-1 -2,-29 -50,-81 -37,-119 15,-47 72,-35 121,-26 14,46 87,83 135,66 48,-17 54,-44 77,-84l4 -7c4,-8 9,-18 20,-14 21,14 9,28 7,53 -2,35 23,69 64,65 16,-2 28,-14 41,-25 29,-24 42,-93 92,-55 21,16 14,52 30,63 25,17 55,-27 69,-42 18,-18 32,-47 46,-70 14,-24 6,-45 43,-27 2,25 -29,73 -26,110 0,5 1,5 1,9l2 5c19,1 61,-16 68,-35 9,-24 -3,0 -4,-25 1,0 3,-1 4,-1 0,0 2,0 3,0l18 1c9,-16 21,-48 39,-30 9,10 3,13 7,29 7,31 30,37 53,54 17,12 25,22 40,34 9,7 12,11 22,15 27,13 51,34 84,27 34,-8 38,2 58,-4 15,-4 30,-15 44,-24 12,-8 13,-5 23,-11 15,-8 22,-23 34,-4 23,34 55,36 58,81 3,43 -40,94 -24,126 1,1 1,2 1,2 6,9 -4,0 8,9 7,5 26,13 32,16 20,7 18,3 30,0 18,-4 24,1 39,1 9,0 19,-7 26,-9 48,-14 73,-91 91,-46 7,17 -5,21 12,46 13,-3 21,-12 38,-11 26,3 65,16 76,40 10,22 26,42 31,67 11,61 8,72 -10,133 23,-1 17,-7 33,11 36,41 26,38 46,84 8,17 20,41 22,61 3,50 -34,109 -7,149 5,7 19,18 25,23 39,29 110,-75 129,-75 29,8 19,32 18,63 -3,81 -92,116 -107,157l16 2c11,-10 6,-25 25,-27 19,-1 24,9 26,22 6,36 -4,130 -25,161 -13,19 -37,31 -47,47 4,12 13,32 28,39 11,5 38,0 54,3 8,12 18,62 15,78 -6,31 -21,54 -34,76 -11,19 -31,45 -45,58 -24,21 -66,88 -8,78 57,-9 40,-36 93,-16 0,9 -6,-4 3,11 -6,14 -16,15 -29,33 -8,12 -15,26 -23,37 -16,22 -43,51 -52,67 24,5 24,4 30,25 5,14 10,22 8,42 -4,38 -50,69 -82,77 -18,4 -21,6 -34,11 -20,8 -61,2 -70,27 10,9 5,3 16,8l8 4c2,32 -15,29 -36,38 -19,8 -30,19 -45,26 -14,7 -35,13 -53,17 -22,5 -38,2 -65,-4 -11,47 47,67 50,103 -19,21 -43,13 -70,-3 -42,-24 -69,-55 -109,-83 -19,-14 -25,-41 -42,-50 -14,11 -54,77 -95,105 -22,15 -42,39 -60,54 -17,13 -30,22 -46,31 -39,24 -50,42 -93,59 -21,8 -26,18 -45,27 -59,28 -121,54 -184,72 -85,24 -89,8 -121,13 -27,4 -72,4 -100,0 -21,-3 -47,-8 -69,-8 -7,12 -7,28 -10,42l38 32c33,29 97,73 139,78 13,-16 16,-33 42,-28 10,13 7,20 18,34 17,21 42,27 18,62l0 0 9 6c22,12 41,27 59,42 16,13 42,25 60,38 36,26 61,31 84,61 26,32 19,2 23,66 3,31 -6,77 -2,119 5,43 11,105 24,142 28,86 66,163 126,232 8,10 11,17 19,26 11,13 19,5 29,19 22,32 -10,44 -19,54 -5,6 -14,23 -19,30 -16,22 -28,30 -43,52 -8,11 -14,14 -24,25 3,11 0,0 4,7 10,22 3,27 6,51 4,37 37,124 55,153 47,77 27,56 46,96 22,46 47,35 18,111 -9,4 -12,5 -21,9l-53 33c-30,23 -56,51 -81,72 -25,22 -93,120 -122,155 -11,15 -18,22 -27,36 -7,12 -17,26 -25,38 -9,14 -14,30 -22,44 -30,49 -67,123 -75,186 18,23 79,99 102,111 18,10 31,-4 48,-6 6,-1 7,-2 14,1 14,6 4,0 9,8 21,31 48,42 28,65 -11,13 -25,10 -41,29 -19,21 -66,60 -77,83 -24,48 -69,30 -100,-2 -8,-8 -10,-9 -18,-16 -85,-68 -62,-145 -95,-173 -7,33 -1,85 -2,120 0,80 -8,156 -2,238l13 136c10,52 42,273 33,297 -10,24 -26,13 -46,18 -13,2 -10,5 -24,7 -23,3 -70,-8 -94,-12 -13,40 -8,148 -16,202l-28 203c-25,126 -59,244 -84,370 -13,65 -29,119 -44,183 -4,17 -9,21 -13,40 -10,43 -26,80 -27,126 19,-1 31,-10 46,-16 78,-30 41,-19 92,1 40,16 47,31 27,64 -7,12 -26,87 -29,100 31,-8 39,-41 107,19 16,14 19,32 15,57 -6,40 -12,33 -26,57 13,20 15,24 -3,44 -24,26 4,42 -24,65 -187,-47 -292,-70 -483,-103 -36,-6 -73,-14 -108,-17 -18,-22 -21,-21 -12,-61l20 -72 30 1c2,-9 -2,-20 -2,-32 -1,-47 35,-110 78,-128 20,-9 28,-13 52,-20 5,-12 31,-65 38,-70 10,-10 20,-7 36,-9 30,-5 15,-2 37,9 3,-16 5,-33 6,-49l14 -77c29,-92 20,-159 33,-229 16,-88 9,-173 17,-257 2,-21 -1,-39 -2,-62 -1,-38 -11,-72 -20,-107l-35 -157c-10,-36 -13,-74 -21,-108 -45,-5 -62,-11 -102,-24 -74,-23 -85,-61 -82,-132 4,-78 9,-157 -1,-235l-15 -128c-3,-16 -12,-72 -19,-81 -19,16 -68,157 -76,191 -18,76 -25,147 -39,223 -5,21 5,26 -6,56 -24,11 -12,2 -32,6 -7,1 -15,9 -24,13 -33,13 -66,7 -100,9 -30,3 -74,-6 -106,-9 -6,7 -22,37 -27,45 -8,15 -16,27 -25,43 -16,29 -36,65 -48,95 -37,88 -60,173 -80,272 -20,93 -76,445 -68,482 48,15 92,8 103,36 5,13 -3,42 -2,59 0,32 -4,24 15,44 18,18 18,14 23,42 6,32 17,71 7,105 -4,17 -17,34 -17,49 37,9 54,25 32,62 -11,19 -10,16 -9,41 0,20 -11,34 -30,29l-201 -51c-39,-8 -71,-11 -108,-21 -29,-7 -73,-7 -109,-14 -33,-6 -202,-36 -213,-43 -13,-57 11,-82 8,-102 -3,-13 -9,-12 -1,-30 22,-48 34,-74 91,-57 11,-13 9,-23 22,-31 9,-5 17,-5 26,-6l10 -2c-1,-21 11,-64 21,-83 7,-13 40,-26 56,-32 48,-19 94,26 128,51 6,-33 -7,-65 -2,-133 2,-23 -5,-41 -3,-64l4 -135c-2,-25 -4,-37 -2,-65 2,-39 8,-96 6,-134 -2,-46 8,-93 8,-139 1,-51 39,-296 51,-364 4,-24 12,-49 15,-73 -43,-10 -32,-8 -59,-32 -9,-9 -15,-7 -23,-18 -22,-33 -19,-31 -12,-72l43 -241c23,-122 43,-134 66,-222 23,-85 64,-162 91,-251 4,-15 12,-28 17,-42 6,-21 9,-22 15,-39 11,-33 13,-56 28,-90 9,-20 32,-51 32,-76 -15,-9 -14,1 -24,-10 -8,-7 -13,-12 -16,-23 -4,-11 43,-219 50,-253 27,-139 66,-193 81,-264 -10,5 -32,30 -38,38 -13,20 0,28 -26,45 -27,-1 -26,-9 -46,-18 -35,-16 -53,-57 -74,-88 -23,-34 -18,-36 -38,-68 -13,-22 -16,-46 -25,-68 -2,-5 -1,-3 -4,-7 -21,4 -85,48 -112,63 -14,8 -34,37 -50,42 -38,13 -67,-25 -77,-55 -9,-27 -25,-47 -40,-69 -6,-10 -2,-4 -7,-14 -18,-37 -33,-35 -58,-115l-17 -67c-3,-16 -14,-48 -17,-64 -12,-71 -30,-133 -40,-205l-47 -196c-37,40 -88,81 -148,71 -38,-7 -33,-9 -58,-23 -16,-10 -30,-27 -42,-39 -67,-70 -24,-174 -20,-211 5,-35 12,-75 23,-109 8,-22 18,-37 26,-61 16,-55 6,-76 32,-136 14,-33 11,-27 32,-52 15,-18 12,-33 41,-37 24,-3 43,15 64,10 7,-5 0,-24 3,-47 1,-9 -1,-18 -1,-26 1,-9 3,-17 4,-27 0,-13 -5,-32 -6,-48 -2,-47 -16,-90 -29,-135 -8,-26 -22,-64 -31,-81 -7,-13 -14,-28 -21,-38l-62 -112c-26,-53 -54,-93 -85,-144 -24,-40 -91,-187 -111,-234l-43 -121c-10,-41 -25,-94 -29,-135 -3,-32 -6,-63 -8,-97 -3,-37 1,-63 4,-102 10,-143 104,-336 202,-448 12,-13 21,-21 30,-32 10,-10 19,-22 29,-33 38,-43 78,-78 122,-118 49,-45 145,-143 182,-187l112 -134c35,-44 130,-180 153,-228 -14,5 -37,32 -54,43 -45,29 -25,7 -45,50 -19,39 -44,94 -76,120 -34,29 -49,30 -92,20 -28,-7 -30,-4 -43,-24 -28,-45 -13,-105 3,-150 10,-30 -1,-31 24,-46 37,-22 42,-21 68,-51 20,-24 18,-29 25,-63 -23,-5 -48,-9 -71,-12 -12,-2 -54,-19 -63,-15 -7,3 -44,60 -55,71 -61,58 -21,39 -90,62 -53,18 -23,5 -78,33 -17,9 -37,13 -44,33 -27,71 -12,53 -61,106 -34,37 -104,71 -158,66 -7,-1 -63,-16 -68,-19 -12,-7 -7,-9 -22,-18 -43,-28 -71,-85 -25,-125 109,-93 90,-194 153,-268 9,-11 11,-9 25,-12 47,-13 91,-31 137,-45 27,-8 26,-18 36,-45 30,-85 68,-165 115,-227 39,-52 45,-43 32,-108 -6,-31 -35,-73 -72,-84 -50,-16 -110,-12 -154,-25 -39,-13 -81,-34 -115,-57 -32,-22 -50,-55 -65,-89l-20 -53c-18,-49 -21,-135 -62,-161 -41,-26 -64,-25 -95,-68 -24,-32 -43,-74 -13,-109 30,-33 57,-37 112,-31 39,4 30,2 65,20 1,0 1,1 2,1l24 15c13,7 14,8 21,19 10,17 25,28 35,43 36,54 46,94 58,160 3,17 6,44 10,59 18,59 16,42 32,79 18,44 85,78 131,61 17,-7 44,-3 66,-1 85,6 119,60 166,84 11,6 12,9 22,19 8,9 11,16 17,21 11,-3 25,-9 34,-12 10,-3 27,-2 37,-3 1,-20 -8,-13 -19,-26 -8,-10 -6,-22 2,-31 14,-7 26,2 45,3 -2,-7 -23,-32 -30,-38 -16,-13 -24,-23 -1,-38 13,0 60,28 76,35 13,7 28,10 39,17 14,9 19,16 34,22 4,-41 -41,-44 -22,-73 26,-37 60,46 78,57 24,15 75,-28 104,-29l-1 1c2,0 3,0 4,0zm1373 4939c30,-17 50,-3 63,-3 16,0 50,-16 68,-11 9,21 16,64 23,87 23,81 43,105 70,164 13,27 -49,90 -68,116l-76 121c-21,33 -77,146 -100,164l9 -323c0,-55 4,-109 -1,-160l-4 -76c-3,-21 -6,-20 6,-38 15,-24 5,-17 10,-41z"/>
   <path class="fil2" d="M1755 327c9,-10 19,-14 18,-36 -3,-72 18,-89 61,-147 6,-9 16,-17 23,-27 12,-17 26,-55 37,-70 35,1 58,68 74,103 18,42 67,184 43,216 -10,12 -22,-6 -30,25 12,16 13,9 29,21 22,18 36,54 45,81 16,44 25,96 11,142 -6,22 -14,17 -14,35 1,10 21,48 26,56 9,14 54,58 66,66 25,17 50,28 54,40l-56 -15c-12,8 -15,11 -14,29 43,37 173,68 185,82 -35,24 -82,39 -119,54 -33,13 -44,-5 -52,14 -14,32 46,30 81,40 -18,17 -83,4 -89,9 -20,31 25,38 45,55 -21,12 -58,0 -78,-12 -21,-14 -21,-7 -42,-13 -11,-4 -10,-7 -20,-9 -15,-4 -10,-3 -17,2 -18,13 -2,25 -2,41 -14,3 -28,-4 -41,7 -10,8 -14,20 -23,28 -20,20 -95,48 -126,64l-108 32c-67,9 -146,8 -204,-39l-27 -24c-12,-13 -12,-12 -27,-24 0,-25 4,-21 -3,-40 -18,-3 -20,-4 -34,3 -8,3 -20,9 -28,12 -24,10 -50,1 -78,-6 10,-23 40,-47 26,-81 -19,-6 -28,3 -52,2 -21,0 -31,0 -55,-5 8,-24 19,-13 17,-44 -13,-7 -23,-5 -37,-6 13,-24 19,-14 8,-41 -15,-7 -28,-2 -47,-7 -15,-4 -28,-9 -46,-12 9,-12 30,-17 43,-24 15,-8 27,-12 41,-20 16,-9 24,-19 37,-26 20,-10 19,-21 12,-41 -33,-11 -12,14 -92,-2 9,-15 28,-14 45,-30 84,-75 56,-51 49,-87 -10,-50 -8,-148 14,-195 5,-11 8,-21 13,-31 14,-24 39,-56 40,-82 -20,-3 -18,4 -29,19 -5,7 -15,25 -21,31 -14,-3 -34,-15 -47,-21 -29,-14 -40,-39 -55,-66 -28,-50 -16,-71 -23,-142 -3,-36 -46,-52 -46,-68 23,-2 44,5 64,3 15,-2 -3,-5 21,4 35,13 69,6 139,53l74 71c39,62 24,43 37,93 19,6 26,4 39,-2l102 -37c25,-7 51,-7 76,-13 44,-9 49,4 87,12z"/>
   <path class="fil2" d="M1303 1570c-4,-17 0,-29 -3,-44 -5,-22 -16,-8 -1,-40 5,-9 15,-32 18,-41 28,-82 42,-108 57,-191 4,-20 6,-32 7,-52 0,-51 0,-19 -6,-41 66,-8 58,-11 85,22 27,34 8,13 20,86 8,42 -13,126 -15,162 -1,17 5,27 13,38 8,10 18,22 26,34 8,12 12,21 21,34 38,57 113,141 85,216 0,0 -4,11 -4,11l-8 10c-5,-33 -25,-101 -50,-117 -19,-13 -30,-3 -32,17 8,8 16,11 23,20 7,9 7,13 12,25 8,19 14,35 18,54 9,51 -30,77 -82,50 0,-27 10,-100 -17,-126 -47,9 1,36 -11,101 -16,-12 -3,-7 -25,-33l-44 -67c-19,-43 -13,-24 -30,-49 -27,-45 -20,-15 -37,-45 -8,-16 -15,-17 -20,-34z"/>
   <path class="fil2" d="M1878 1220l61 -35c24,-12 45,23 57,37 54,67 31,59 54,87 26,33 31,32 64,40 23,5 21,10 37,16 16,6 27,5 44,13 21,11 74,50 81,70 -29,-6 -27,-22 -63,-26 -26,-4 -53,-6 -52,23 25,16 30,-2 57,7 17,7 80,47 82,66 3,26 -15,36 -31,39 -18,-16 -16,-31 -47,-53 -17,-12 -48,-34 -71,-31l-7 21c27,22 62,23 78,53 -12,-2 -85,-34 -148,-41 -65,-8 -93,-14 -144,-43 -48,-28 -47,-23 -66,-100 -17,-65 -22,-47 -36,-84 -6,-16 -9,-14 -13,-26 10,-13 46,-25 63,-33z"/>
   <path class="fil2" d="M953 1371c13,0 14,-3 24,-4 11,-1 18,2 29,2 12,1 17,-2 25,-3 12,-1 18,2 29,1 20,0 30,-9 44,-13l44 -12c-2,26 -17,46 -29,69 -19,36 -60,63 -92,88 -20,15 -43,4 -58,27 3,22 6,12 17,25 -5,22 -36,80 -60,98 -10,8 -13,16 -27,19 10,-25 33,-49 32,-80 -37,-21 -30,6 -39,34 -4,13 -26,40 -32,49 -12,-3 -19,-6 -27,-14 4,-29 53,-69 50,-103 -34,-18 -37,37 -60,58 -8,-18 8,-59 17,-78 18,-40 76,-62 91,-87 11,-16 20,-55 22,-76z"/>
   <path class="fil1" d="M2630 2107c19,11 44,12 63,7 38,-11 30,-35 54,-50 18,6 26,28 36,39 72,80 71,45 155,80 38,17 82,33 121,17 34,-13 42,0 69,-37 16,-23 -4,0 3,-22 20,2 36,22 43,34 12,20 10,35 1,57 -25,62 -41,82 5,123 30,28 53,40 95,30 14,-3 17,-2 29,-6 13,-5 62,-40 71,-38 30,20 -16,46 -16,65 1,11 18,23 32,13 6,-5 4,-9 13,-12 8,-3 7,0 17,-3 17,-11 32,-99 92,4 9,15 11,15 5,33 -6,19 -4,35 -9,49 -5,16 -3,4 -11,15 -7,8 -5,8 -9,18 -16,38 -33,78 -16,117l27 6c22,-22 26,-37 56,-42 40,-5 35,28 44,53 9,24 24,41 21,71 -4,56 -43,93 -25,122l38 59c12,17 10,8 29,20 30,19 39,11 69,-10 19,-13 32,-38 59,-38 -5,30 -11,39 -27,59 -83,106 -115,43 -119,95 67,52 96,39 108,44 -1,10 -3,20 -5,30 -6,34 -18,26 -34,61 -7,17 -17,18 -25,40 -3,11 -2,15 -8,23 -11,15 -29,16 12,65 37,44 97,-10 78,64 -8,27 -75,125 -94,150 -72,96 4,90 78,97 -10,36 -44,45 -64,72 -6,8 -9,15 -17,24 -26,-2 -39,1 -39,30 29,18 60,-11 75,14 14,20 -16,54 -28,66 -27,26 -94,28 -128,43 -16,8 -17,2 -34,8 -16,7 -12,11 -23,23 -13,-2 -19,-6 -30,-4 -2,27 29,28 37,49 -7,14 -19,14 -32,17 -12,3 -18,8 -35,5 -11,-1 -39,-5 -48,-8 -24,-8 -30,-49 -57,-26 -15,13 -8,17 -4,31l8 36c4,11 9,20 10,35 -36,-18 -70,-59 -90,-89 -20,-29 -21,-22 -5,-57 8,-18 16,-50 27,-66 14,3 19,14 43,22 50,17 84,-17 112,-54 41,-57 -18,-140 20,-179 20,-20 45,-36 56,-63 15,-38 10,-69 -1,-97 -12,-30 -33,-47 -65,-56 -17,-5 -30,-9 -48,-8 -20,0 -24,8 -44,11 9,-22 41,-84 53,-101 22,-31 58,-29 54,-84l-56 -26c6,-10 55,-30 70,-45 37,-38 37,-16 77,-32 6,-23 2,-38 -21,-43 -27,-6 -33,-17 -53,-20 -36,-4 -69,9 -90,-34 11,-30 17,-2 17,-43 -1,-19 13,-26 -6,-41 -28,6 -34,30 -39,43 -21,9 -33,12 -54,-2 -13,-8 -30,-17 -44,-27 0,-27 20,-30 27,-54 5,-15 5,-22 0,-34 -4,-7 -9,-17 -15,-23 -28,-26 -56,-49 -103,-61l8 -40c-18,-18 -45,-25 -73,-27 16,-42 45,-55 38,-83 -49,-23 -54,29 -98,14 -9,-30 2,-49 14,-75 7,-14 6,-21 16,-34 46,-60 -68,-34 -94,-28 -34,7 -57,23 -90,35 -19,-16 -27,-48 -25,-73 1,-16 5,-12 -3,-25 -19,-15 -45,19 -56,29 -9,7 -20,15 -27,23 -7,8 -12,21 -22,27 -9,-10 -16,-25 -11,-39 6,-18 22,-17 20,-35 -2,-19 -20,-21 -34,-13 -11,6 -18,17 -24,26 -12,21 -76,109 -107,103 -4,-12 -2,-51 -3,-66 -1,-22 -10,-43 -20,-53 -36,-31 -84,14 -90,49 -5,24 -10,95 -23,109 -26,29 -108,5 -88,-59 9,-32 8,-68 -5,-96 -7,-13 -10,-25 -15,-37 -35,-5 -47,33 -66,54 -1,1 -2,2 -2,2 -1,1 -2,2 -2,2l-5 4c-1,-28 -2,-32 9,-61 7,-19 23,-33 13,-50 -21,-6 -43,20 -58,31 -24,18 -29,17 -51,43 -16,18 -28,34 -44,50 -17,17 -24,39 -40,56 -24,-7 -14,-37 -20,-58 -5,-15 -44,-35 -52,-11 -6,18 11,6 8,28 -4,33 -26,69 -52,85 -13,8 -99,33 -121,35 -75,9 -47,41 -71,104 -7,2 -14,-2 -22,-4 2,16 9,17 1,37 -7,14 -13,21 -27,22 -18,-21 8,-34 -30,-42 -30,32 -7,25 -24,93 -42,-9 -48,-81 -103,-23 -37,38 44,71 59,87 -11,6 -24,-1 -35,-6 -14,-7 -18,-8 -29,-17 -19,-17 -41,-4 -47,20 1,13 36,51 36,87 -17,-7 -26,-17 -45,-22 -28,-7 -26,1 -44,8 -20,8 -20,5 -35,20 -12,12 -16,20 -19,37 -12,63 26,68 30,87 9,34 -45,55 -9,125 26,50 48,47 109,55 -10,36 -23,83 -25,121 -2,28 6,78 -22,92l-37 -13c2,-24 55,-77 37,-101 -21,-17 -35,21 -61,18 -6,-26 6,-51 -13,-79 -13,-19 -48,-28 -58,-47 13,-16 34,-12 51,-26 2,-15 0,-35 -13,-40 -19,-8 -11,5 -36,-16 -23,-19 -47,-23 -52,-54 17,-17 34,-36 52,-51 40,-31 -48,-37 -71,-44 5,-14 37,-33 49,-52 10,-15 52,-75 13,-81 -20,-2 -13,11 -35,4 1,-4 25,-38 31,-43 7,-7 10,-6 20,-16 7,-7 10,-11 18,-17 43,-37 80,-14 68,-64 -28,-8 -40,-3 -47,-28l15 -4c3,0 6,0 11,-1 15,-3 34,-6 38,-23 7,-26 -15,-22 -31,-38 -18,-19 -47,-50 -46,-77 12,-1 23,1 35,0 18,-3 22,-12 38,-16 26,-8 20,-11 42,-27l26 -15c10,-6 21,-29 29,-39 16,-18 10,-22 5,-43 -26,-9 -38,-1 -42,-29 -7,-54 47,-42 73,-53 91,-38 188,-3 205,-68 4,-12 2,-13 -2,-23 -39,-15 -21,25 -77,-3 0,-14 7,-17 20,-25 65,-44 85,-55 168,-43 33,5 39,21 56,22 4,0 13,-3 16,-3 5,-22 5,-19 -7,-31 -18,-22 -34,-49 -40,-79 -5,-23 -2,-52 22,-53 27,-2 42,15 60,28 10,8 15,10 26,18 28,23 63,32 99,30 43,-2 26,-1 51,-26l33 -32c7,-8 2,-4 10,-8 9,21 4,56 8,77 6,10 32,24 50,18 0,0 1,-1 2,-1l5 -2c2,0 15,-4 16,-4 19,-4 5,-1 13,2 16,6 24,-9 36,-17 45,-32 55,-76 67,-84l28 43c4,20 -6,13 6,29 14,18 32,7 51,4 29,-3 42,-28 63,-45l15 14z"/>
   <path class="fil3" d="M2715 2500c21,12 36,79 65,47 19,-20 -6,-50 48,-80 7,7 13,38 17,51 8,22 2,34 21,50 9,-2 3,-1 10,-5 21,-11 -12,3 6,-4 21,14 22,6 40,-3 21,-10 18,-9 36,-24 21,-17 48,-35 84,-24 -8,56 -68,64 -14,143 11,17 22,20 47,19 -4,11 -2,7 -8,15 -22,32 -14,7 -11,33 -28,-5 -47,-17 -74,-24 -25,-7 -52,-12 -79,-18 -51,-11 -99,-17 -146,-2 -12,37 -9,59 -18,92 -9,30 -21,58 -2,76 20,20 231,39 343,86 71,29 58,38 89,60 23,16 35,22 55,-3 13,-17 8,-16 23,-13 13,26 -15,35 29,55 44,20 28,20 66,8l49 45c21,12 38,0 71,17 -8,14 -60,29 -79,38 -19,9 -23,16 -38,25 -24,15 -17,8 -10,35 50,14 34,4 67,33 -7,19 -23,26 -34,41 -19,24 -17,11 -21,49 -3,27 -9,34 -21,54 -16,27 -38,32 -17,59 11,15 3,18 47,-5 89,-48 159,43 116,106 -19,29 -37,34 -52,52 -2,3 -17,36 -18,39 -9,39 28,79 7,130 -9,20 -35,47 -59,50 -37,4 -45,-40 -74,-36 -36,14 -30,29 -42,68 -20,64 -54,126 -103,170l-82 71c-28,24 -62,43 -89,64 -11,9 -19,12 -29,20 -25,18 -38,21 -61,35 -20,12 -48,20 -67,31 -15,9 -21,7 -36,13 -102,43 -164,42 -276,39 -20,0 -25,3 -49,-3l-144 -35c-33,-10 -46,-20 -82,-27 -48,-9 -133,-39 -173,-60 -35,-18 -74,-35 -106,-58 -32,-23 -61,-48 -93,-67l-31 -24c-6,-5 -10,-6 -17,-10 -23,-17 -49,-42 -68,-63 -55,-60 -38,-45 -79,-119 -36,-65 -62,-134 -70,-212 -3,-25 -8,-59 -8,-82 -1,-31 2,-56 3,-88 1,-33 22,-168 19,-184 -13,-22 -87,11 -109,-65 -4,-14 -3,-20 4,-34 29,-50 22,-62 0,-90 -44,-53 11,-90 36,-89 15,0 44,23 52,33 24,30 16,48 40,41 10,-26 0,-23 0,-44 -1,-21 2,-21 -3,-43 -7,-27 -23,-43 -27,-71 23,10 67,32 96,23 23,-26 4,-45 -19,-58 -14,-8 -37,-18 -42,-33 -2,-4 -2,-1 -1,-7 1,-6 2,-8 6,-8 21,-1 -10,-4 9,0 10,2 13,9 21,16 9,8 21,17 27,24 12,12 12,24 22,28 34,11 19,-42 23,-60 10,-40 53,-11 73,-76 2,16 15,34 37,30 15,-3 30,-14 50,-17 37,-4 208,7 255,20 13,3 18,8 30,9 8,1 21,0 32,3 18,5 9,8 27,13l73 12c23,-23 24,-107 39,-129 5,-7 15,-8 7,-25 -2,-5 -11,-12 -18,-18 -12,-12 -36,-17 -55,-22 -34,-9 -41,-7 -70,-10 -20,-2 -50,-7 -69,-8l-124 -1c6,-13 18,-21 28,-34 9,-11 13,-30 22,-40 14,20 14,46 44,51 26,-20 42,-63 64,-87 11,-13 22,-26 34,-39 14,-17 18,-30 41,-36 -11,43 -16,83 18,114 12,11 18,9 31,6 6,-22 6,-86 44,-92 10,8 9,15 12,28 14,66 -45,93 7,143 28,26 60,35 97,18 51,-24 66,-83 72,-135 2,-19 11,-36 31,-34 30,17 -18,159 50,123 41,-22 75,-35 105,-76z"/>
   <path class="fil4" d="M735 3995c7,-35 5,-96 2,-131 -1,-16 -3,-17 -5,-30l-14 -87c-3,-11 -7,-14 -12,-26 -9,-25 -13,-53 -25,-79l-36 -73c-33,-50 -72,-137 -89,-163l-127 -234c-9,-18 -15,-32 -21,-52 -5,-16 -16,-37 -22,-49l-29 -77c-9,-22 -28,-113 -33,-138 -23,-121 -16,-265 33,-381 17,-39 33,-80 53,-115 11,-20 19,-30 30,-49l34 -45c-3,14 -8,22 -12,34 -32,115 -39,85 -51,232 -7,89 3,162 15,240 7,47 11,49 20,83 3,10 4,14 6,26 6,36 39,107 50,157l198 404c4,9 4,15 8,25l23 47c36,79 65,169 80,257 12,68 21,180 7,244 -18,0 -56,-17 -83,-20z"/>
   <path class="fil5" d="M1841 2719c-6,-105 76,-93 162,-101 14,-1 24,2 35,1 26,-2 45,4 71,3 49,-2 171,9 209,34 -2,20 -6,41 -13,59 -28,70 -18,47 -139,22 -102,-22 -136,-15 -226,-22 -53,-3 -87,9 -99,4z"/>
   <path class="fil5" d="M2766 2816c-4,-22 6,-93 23,-109 7,-7 35,-11 45,-10 18,2 38,6 56,9 36,6 83,14 117,26l97 38c3,12 0,9 5,17 13,-7 13,-14 31,-6 11,4 17,10 31,15 44,17 91,46 68,99 -11,26 -18,43 -33,63 -23,-2 -90,-58 -146,-72 -18,-5 -39,-11 -55,-17 -65,-23 -194,-29 -239,-53z"/>
   <path class="fil3" d="M2388 4390c21,0 51,28 68,40 25,18 62,33 68,43 -13,9 -24,11 -38,16 -41,15 -125,20 -171,20 -14,0 -25,-4 -39,-3 -37,1 -106,-8 -140,-26 -33,-18 -72,-45 -88,-78l18 -2c53,-3 94,-26 106,-26 -2,25 -17,25 -2,44 1,0 1,1 2,2 10,10 -5,2 13,10 13,-6 19,-15 24,-33 7,-30 20,-28 44,-140 22,5 24,13 93,28 60,12 35,15 25,64 -3,17 -26,87 -26,87 4,17 23,12 30,2 11,-14 6,-29 13,-48z"/>
   <path class="fil6" d="M2005 4355c11,26 11,58 23,77 57,93 144,104 240,110 37,3 60,4 94,1 46,-3 84,-13 125,-20 17,-3 20,-11 36,-18 14,-6 26,-12 39,-15 34,-7 21,-11 37,-19 17,14 21,30 7,49 -33,44 -88,57 -134,69 -47,13 -93,9 -113,12 -38,7 -91,-5 -133,-14 -115,-22 -216,-83 -271,-178 -6,-10 -26,-33 -10,-49 10,-10 41,-13 60,-5z"/>
   <path class="fil3" d="M737 4021c16,1 33,5 47,11 34,14 20,4 24,31 26,6 61,-16 44,57 -8,37 -6,93 -1,129 2,21 10,39 6,61 -22,5 -53,17 -78,23l-58 21c-45,27 -38,4 -54,-5 -11,-6 -7,1 -20,-11 -5,-4 -8,-10 -14,-14 -26,-22 -47,-31 -56,-59 -14,-47 2,-153 25,-195 7,-13 14,-25 24,-36 19,-18 30,-28 57,-22 30,6 3,11 26,20 18,7 23,-7 28,-11z"/>
   <path class="fil0" d="M501 4493c26,18 1,45 86,53 40,3 66,-22 84,-52 50,-85 2,-86 96,-121 14,-5 36,-17 51,-14 2,20 -36,119 -48,135 -8,11 -12,10 -19,25 -15,30 -35,53 -62,74 -22,16 -26,16 -58,22 -34,6 -43,-1 -66,-19 -26,-19 -72,-65 -64,-103z"/>
   <path class="fil0" d="M602 4504c-22,7 -51,-2 -61,-18 -26,-40 -24,-126 -12,-172 2,-11 7,-24 15,-30 6,12 2,18 12,28 7,7 20,12 28,18 10,7 44,31 52,40 -6,21 -12,37 -18,62 -6,24 -8,50 -16,72z"/>
   <path class="fil5" d="M638 4489c-4,-14 13,-84 20,-98 25,6 20,23 9,44 -7,13 -16,50 -29,54z"/>
   <path class="fil3" d="M775 4545c10,-19 45,-80 51,-102 4,-15 3,-31 13,-44 12,5 11,12 18,33l42 110c20,46 39,100 61,146 6,12 11,21 17,35l49 108c8,14 10,23 15,36 5,15 9,23 17,36 11,16 6,21 13,37 27,58 38,17 63,2 17,-10 97,-56 112,-60 8,11 11,20 15,35 13,40 34,66 49,103 10,25 14,49 23,75 13,43 -6,46 -31,70 -42,39 -33,16 -63,41 -12,11 -18,10 -32,19l-114 64c-11,7 -8,3 -20,6 -23,5 -14,13 -28,30 -24,-4 -16,-14 -31,-36l-12 -22c-13,-24 -52,-72 -71,-103 -41,-67 -68,-231 -87,-303 -9,-35 -14,-72 -21,-107 -8,-36 -18,-67 -27,-103 -4,-16 -6,-35 -10,-53 -7,-37 7,-31 -11,-53z"/>
   <path class="fil3" d="M2766 5544c150,-32 156,-83 190,-93 -3,88 5,69 28,144 8,27 61,128 78,171 6,14 11,34 6,52 -34,9 -4,8 -66,52 -29,21 -70,63 -93,90l-139 179c-21,27 -51,94 -69,128 -11,22 -32,55 -43,87 -3,9 -5,21 -7,29 -3,8 -2,4 -6,9 -1,1 -5,3 -9,9 -5,32 43,79 62,100l64 66c10,11 8,17 17,25 23,4 28,-14 52,-9 -13,35 -64,53 -91,93 -30,47 -52,6 -74,-11 -16,-12 -19,-19 -24,-35 -5,-17 -11,-22 -19,-39 -13,-24 -44,-102 -47,-125 -5,-34 -12,-66 -11,-99 3,-48 60,-148 83,-184 19,-30 28,-52 46,-85 6,-11 17,-25 25,-38l7 -9c23,-34 42,-72 71,-113l56 -74c11,-13 27,-8 31,-31 4,-24 -15,-22 -25,-36l-38 -79c-15,-33 -62,-149 -55,-174z"/>
   <path class="fil7" d="M1730 7117c-21,-14 -38,-32 -57,-44l-115 -67 -106 -34c-48,-17 -123,-43 -179,-35 -21,3 -23,-2 -45,-4l-59 6c-20,3 -34,17 -54,16 -5,-35 34,-217 44,-266 14,-67 34,-119 56,-182 8,-21 11,-41 18,-63l104 -280c8,-20 35,-140 63,-176 13,3 25,8 34,14 41,25 37,14 85,54 15,13 34,25 49,41 15,16 152,92 175,105 14,7 54,22 72,27 26,7 53,13 79,21 39,12 38,6 71,9 31,3 52,11 84,11 36,0 35,10 68,19 51,15 104,28 156,23l107 -8c24,0 98,2 116,8 26,58 26,221 22,293 -1,22 2,42 1,63 -1,43 -5,84 -6,127 0,42 3,81 4,121 0,21 6,35 5,58 -1,45 16,115 18,176 1,33 17,82 11,114 -39,-12 -40,-25 -141,-52 -98,-26 -179,-50 -280,-58 -17,-1 -22,2 -38,2 -14,1 -25,-3 -38,-2l-105 16c2,-29 -1,-47 2,-76 3,-26 -2,-50 -2,-78 2,-78 4,-68 -8,-148 -7,-49 -9,-95 -20,-141l-25 -135c-25,-5 -34,16 -30,36 6,29 -54,138 -72,191 -16,50 -25,94 -39,148l-25 150z"/>
   <path class="fil3" d="M1206 8111c6,13 10,10 13,24 -11,7 -22,8 -34,13 -12,6 -14,17 -31,23 -10,-22 5,-56 -2,-73 -8,-21 -18,2 -21,-94 0,-12 0,-21 0,-36 1,-23 -3,-47 -2,-71 3,-52 -3,-98 1,-147 4,-42 8,-104 6,-148 -1,-21 1,-51 2,-73 5,-154 42,-264 57,-402 2,-13 28,-133 35,-145 8,-14 3,-5 8,-9 19,-7 115,3 143,10 26,6 120,32 139,42 3,14 -37,106 -45,127 -15,39 -42,76 -60,113 -48,99 -43,72 -80,179 -7,20 -19,49 -24,67 -14,49 -21,103 -33,153l-60 414c-2,19 -6,18 -12,33z"/>
   <path class="fil3" d="M2138 7193c39,-2 229,29 251,52 16,27 0,226 -7,272 -3,22 -4,48 -7,72 -6,66 -28,167 -43,228 -21,87 -64,307 -87,373 -8,23 -11,51 -19,73 -13,33 -38,104 -43,137 -32,-27 -50,-43 -39,-85 4,-16 4,-29 9,-45 32,-122 30,-213 46,-334 7,-47 16,-276 4,-318l-30 -136c-17,-82 -62,-190 -35,-289z"/>
   <path class="fil7" d="M1124 8393l-52 -13c5,-25 18,-41 18,-67 0,-40 -16,-47 -33,-60 -12,-9 1,-4 -12,-9 -11,-5 -51,-1 -60,6 -7,5 -16,17 -20,24 -11,-7 -12,-12 -20,-21 -22,-23 -15,-15 -15,-50 1,-12 -1,-8 6,-17 6,-10 35,-29 51,-32 33,-5 59,19 79,36 28,22 25,32 42,65 41,6 27,-21 50,-40l54 -36c14,-5 4,-1 16,-2 14,-2 100,-35 90,46 -18,-3 -30,-12 -45,-12 -39,-2 -79,1 -106,31 -32,38 -55,99 -43,151z"/>
   <path class="fil3" d="M1256 8260c29,10 3,-5 30,-5 13,0 24,7 34,14 17,12 31,25 36,45 8,29 9,78 -5,103 -2,5 -5,8 -8,13l-11 13c-19,-5 -20,-8 -42,-9 -16,-2 -35,-6 -48,-12 -13,-6 -26,-12 -40,-15 -19,-4 -33,0 -47,-8l1 -56c6,-30 16,-34 25,-50 14,-27 6,-21 31,-34 15,-8 28,-14 53,-7 0,7 8,-5 -9,8z"/>
   <path class="fil7" d="M2063 8371c40,5 67,27 95,54 17,17 24,35 24,56 0,14 -3,2 3,13 2,5 13,14 21,18 12,1 28,-30 55,-37 20,-5 69,-33 79,11 5,24 -4,37 -12,54 -7,16 -2,12 -7,28 -22,-9 -43,-57 -109,-31 -13,6 -29,27 -37,44 -12,28 1,39 -1,69l-48 -10c53,-112 29,-139 -26,-197 -11,-13 -45,-27 -67,-33 1,-19 20,-28 30,-39z"/>
   <path class="fil3" d="M1010 8279c99,6 13,134 -21,84 -22,-34 0,-61 21,-84z"/>
   <path class="fil3" d="M929 8286c9,21 14,44 6,68 -7,23 6,-12 -2,6 -7,14 -42,0 -56,-3 -8,-25 -20,-30 -6,-63 12,-31 31,-17 58,-8z"/>
   <path class="fil3" d="M2086 8630c-23,-3 -60,-17 -87,-21 -30,-5 -57,-6 -87,-13 -16,-42 1,-105 43,-127 8,-4 16,-9 22,-12 10,-4 61,-15 85,2 20,14 45,27 54,58 9,33 -9,88 -30,113z"/>
   <path class="fil3" d="M783 8349c5,-27 11,-51 38,-38 3,11 0,13 4,21 5,13 7,5 10,22l-52 -5z"/>
   <path class="fil3" d="M2289 8679l-77 -19c-2,-24 -15,-28 -3,-61 13,-35 47,-29 63,-18l25 24c4,5 2,2 4,7 9,19 2,44 -9,62 0,1 -1,2 -2,3 0,0 -1,1 -1,2z"/>
   <path class="fil3" d="M2431 8692c-18,24 -22,19 -61,10 -16,-4 -19,-7 -17,-23 10,-89 118,-37 78,13z"/>
   <path class="fil7" d="M808 8378c22,12 44,9 69,14 14,3 27,8 38,10 16,3 17,-2 33,-2 25,1 52,11 76,14 23,3 48,1 70,8 47,13 90,19 139,33 48,13 91,23 139,39 -6,37 -8,42 -29,41 -6,-1 -13,-2 -19,-2l-192 -44c-43,-9 -113,-16 -155,-20 -34,-3 -162,-30 -196,-45 -14,-6 -10,-17 -5,-33 9,5 10,9 22,10 13,-15 4,-19 10,-23z"/>
   <path class="fil8" d="M2647 4548l-11 -7c-28,32 -64,63 -107,70 -14,2 -8,4 -26,7l-111 18c-45,4 -77,2 -124,-5 -42,-5 -99,-17 -136,-30 -21,-8 -37,-16 -55,-27l-86 -66c-11,-13 -24,-22 -35,-37 -16,-23 -35,-66 -59,-81 -18,5 -31,12 -51,16 -17,4 -35,6 -50,11 -31,8 -66,23 -97,29 -28,6 -25,2 -49,18 -24,17 -49,47 -67,71 -10,15 -18,28 -28,44 -39,62 -81,111 -129,153 -12,10 -26,22 -38,33 -11,10 -23,21 -36,31l-77 55c0,12 17,56 24,68 7,14 10,17 15,32 4,14 9,19 15,32 30,63 22,73 44,140l34 146c5,23 12,152 15,158 20,-4 40,-56 55,-70 12,-11 8,1 17,-16 17,-32 80,-284 101,-329 6,-15 15,-32 19,-48l29 -103c10,-47 12,-61 8,-104 -2,-14 -10,-80 21,-76 21,2 5,0 8,5 5,8 2,6 1,20 -4,45 11,87 3,134 -5,33 -39,117 -52,151 -5,13 -7,28 -12,42 -5,15 -9,17 -14,37 -6,28 -17,54 -23,79l-46 159c-10,27 -16,51 -25,79 -8,29 -17,46 -26,73 -9,28 -13,50 -26,78 -31,67 -46,171 -63,245 -19,80 -15,126 -24,169 58,11 32,5 77,27 35,18 59,37 90,57 14,9 16,14 26,22 16,13 40,24 60,35 54,31 132,85 196,99 26,6 55,16 80,22 56,15 186,25 242,18 16,-3 23,1 40,0 10,0 21,-3 32,-4 99,-4 155,7 250,26 28,5 50,24 76,18 3,-12 9,-42 12,-56 5,-23 9,-123 9,-146 1,-124 9,-252 -1,-373 -3,-31 -5,-60 -7,-89 -3,-31 -15,-58 -5,-89 29,0 21,-3 43,-7 9,-50 21,-101 29,-151 12,-73 43,-398 70,-425 26,5 8,48 7,67l-42 288c-8,80 -23,162 -39,241l34 1c21,1 137,-28 161,-36 68,-23 216,-146 226,-210 -7,-6 -14,-12 -20,-20l-46 -63c-86,-140 -120,-248 -121,-420 0,-112 15,-78 -119,-169 -31,-22 -56,-45 -86,-67z"/>
   <path class="fil5" d="M2630 4020c18,3 34,8 50,12l127 7c30,-2 119,-14 142,-26 18,-10 12,-14 26,-25 10,-8 16,-6 28,-15 18,-15 30,-35 42,-59 31,-66 -9,-53 -16,-47 -8,7 -11,25 -15,35 -8,17 -10,18 -21,29 -36,35 -67,55 -121,62 -9,2 -7,3 -18,5 -6,1 -14,1 -20,2 -13,1 -25,1 -38,2l-78 -1c-63,-8 -106,-19 -167,-40 -32,-11 -214,-72 -242,-75 -26,-3 -57,-4 -86,-9 -31,-5 -130,-8 -164,-5 -60,4 -114,-11 -173,-23 -57,-13 -97,-39 -131,-72 -31,-30 -49,-78 -39,-133 7,-41 -53,0 -11,109 42,105 172,125 262,144 5,9 9,32 15,44 9,21 41,49 59,68 12,12 24,16 36,27 16,15 21,16 42,27l41 22c55,30 189,43 252,40 11,0 14,-2 25,-3 68,-6 64,-5 134,-33 22,-8 21,-14 38,-25 16,-13 20,-20 21,-44z"/>
   <path class="fil6" d="M2334 3987c2,-23 6,-41 18,-57 19,2 104,29 117,38 -2,10 -14,32 -19,40 -26,37 -105,-11 -116,-21z"/>
   <path class="fil6" d="M2192 3906c19,-1 71,2 93,8 5,20 6,44 -6,64 -25,13 -18,-6 -47,-2 -19,2 -34,2 -50,-7 -2,-17 6,-43 10,-63z"/>
   <path class="fil5" d="M2068 2793c-32,0 -33,-9 -66,2 -48,16 -27,1 -86,24 -13,4 -18,6 -28,12 -16,8 -57,-4 -102,55 -38,50 -49,150 -55,208 -7,56 6,79 21,123 4,10 7,17 11,26 12,28 0,28 24,53 20,20 6,21 36,46 16,13 29,35 68,60 37,24 77,44 128,48 102,8 159,3 232,-63 67,-60 102,-129 113,-243l-1 -68c-3,-25 -4,-42 -12,-61 -7,-17 -2,-14 -6,-30 -3,-11 -11,-14 -18,-23 -13,-19 -9,-30 -29,-50 -9,-9 -12,-10 -20,-20l-16 -16c-35,-32 -60,-39 -86,-55 -32,-19 -71,-28 -108,-28z"/>
   <path class="fil3" d="M1810 2907c14,-3 17,2 28,-10 20,-21 49,-39 78,-47 43,-12 78,-25 123,-27 92,-2 129,27 193,69 15,10 39,28 41,44 -95,-16 -160,-25 -251,-23 -58,2 -144,-2 -202,15 -1,0 -2,0 -2,0l-7 3c-7,2 5,2 -10,3 2,-17 3,-13 9,-27z"/>
   <path class="fil6" d="M2215 2961c17,1 38,12 57,16 33,8 36,1 44,28 5,14 15,32 15,47 1,90 -4,200 -63,270 -39,45 -100,97 -162,95l-57 1c-18,-2 -46,-7 -63,-11 -31,-8 -73,-31 -95,-48l-67 -70c-17,-21 -62,-138 -58,-184 9,-135 5,-118 55,-144 32,-17 117,-15 158,-18 22,-1 34,0 57,0 55,0 59,-1 118,7 20,3 43,11 61,11z"/>
   <path class="fil1" d="M2831 2954c-54,-11 -132,6 -180,33 -46,26 -37,7 -57,18 -34,18 -78,135 -85,170 -10,47 -9,162 6,200 16,39 73,104 107,130 29,24 39,38 77,51 28,10 24,21 107,31 19,2 105,-9 124,-15 43,-12 113,-55 138,-94 56,-89 79,-223 47,-321 -10,-32 -37,-69 -59,-96 -62,-72 -93,-68 -154,-98 -14,-8 -46,-4 -71,-9z"/>
   <path class="fil3" d="M2663 3011c15,-19 107,-31 128,-32 50,-2 111,15 155,32 60,23 160,146 145,193 -7,-2 -31,-25 -39,-32l-68 -44c-62,-44 -38,-19 -75,-40 -60,-34 -78,-28 -117,-41 -62,-20 -73,-18 -114,-29l-12 -5c-1,-2 -2,-1 -3,-2z"/>
   <path class="fil6" d="M2637 3045c58,-4 179,39 231,58 65,25 165,84 207,138 23,29 11,12 16,44 3,23 8,23 1,54 -18,74 -45,128 -106,170 -8,5 -11,7 -19,12 -45,33 -167,33 -231,10 -58,-20 -33,-11 -70,-37 -8,-6 -12,-8 -19,-14l-63 -67c-54,-62 -46,-96 -43,-191 2,-56 13,-68 27,-118 5,-16 13,-35 23,-45 15,-14 25,-13 46,-14z"/>
   <path class="fil5" d="M1763 856c12,3 18,6 28,4 28,-8 29,-46 18,-64 -42,-69 -151,-42 -177,-20 -26,22 -47,42 -30,86 34,9 23,-12 44,-15 26,70 11,20 41,64 -12,17 -10,3 -16,29 -11,52 -51,87 -99,101l-57 13c-52,1 -89,-24 -116,-51 -44,-43 -56,-78 -73,-82 -25,62 83,143 117,153 60,17 17,-8 52,36l63 76c8,10 40,23 36,-40 -8,-115 7,-70 45,-101l31 -33c8,-9 11,-20 18,-27 10,7 12,20 17,29 29,58 68,55 76,65 9,22 10,33 15,58 4,20 -6,48 9,56 31,18 84,-95 102,-109 12,-10 8,-11 15,-17 5,-4 64,-29 90,-88 8,-19 40,-91 39,-108 -56,-29 -28,132 -161,179 -38,14 -111,4 -135,-24 -35,-39 -41,-59 -38,-116 27,-10 28,-35 46,-54z"/>
   <path class="fil6" d="M1871 1085c-7,14 -26,49 -40,52 -6,-14 -11,-32 -10,-49l50 -3z"/>
   <path class="fil6" d="M1524 1089c13,-6 21,-7 37,-5l1 52c-12,-6 -18,-12 -25,-21 -4,-5 -5,-7 -8,-12 -6,-11 -3,-11 -5,-14z"/>
   <path class="fil5" d="M1485 424c-24,4 -26,-3 -71,12 -54,19 -69,31 -102,86 -23,38 -46,105 -27,154 6,16 8,15 16,28 35,54 7,13 44,51 10,11 17,14 33,21 44,23 111,29 157,13 24,-9 41,-18 60,-32 24,-19 68,-88 69,-135 1,-15 -5,-58 -9,-72 -7,-24 -20,-34 -36,-58 -6,-9 -16,-18 -24,-23 -30,-21 -69,-52 -110,-45z"/>
   <path class="fil5" d="M1437 472c10,-16 -3,-10 14,-17 7,-2 15,-2 23,-1 16,1 39,-1 49,11 -20,4 -31,-1 -55,6l-87 41c-20,10 -19,14 -40,20 9,-37 38,-39 39,-39 14,-7 7,-14 24,-19 8,-3 23,-2 33,-2z"/>
   <path class="fil6" d="M1569 495c14,-5 36,25 41,33 38,58 28,116 -6,175 -59,104 -252,73 -292,-49 -17,-52 7,-78 45,-97 53,-28 90,-61 153,-65 51,-3 30,14 59,3z"/>
   <path class="fil5" d="M1858 425c-24,-1 -46,0 -70,6 -13,3 -44,22 -52,30 -19,22 -66,153 -21,208 13,15 30,49 64,66 12,6 19,12 30,16 60,25 143,26 192,-32 45,-53 59,-131 25,-194 -35,-67 -90,-99 -168,-100z"/>
   <path class="fil5" d="M1754 494c15,-34 14,-13 39,-30 21,-15 22,-10 50,-14 19,-3 44,2 63,9 15,5 37,15 45,29 -20,-4 -41,-9 -61,-12 -17,-1 -33,2 -48,3 -41,0 -57,13 -88,15z"/>
   <path class="fil6" d="M1724 598c0,-2 3,-29 3,-33 7,-48 69,-52 102,-57 45,-7 20,-1 54,-4 20,-1 42,3 60,11 57,24 60,24 70,64 12,56 -11,110 -55,138 -56,36 -143,11 -193,-37 -12,-12 -21,-19 -28,-35 -1,-3 -12,-44 -13,-47z"/>
   <path class="fil5" d="M2713 3640c-54,-18 -18,47 -65,53 -22,3 -69,-32 -84,-40 -23,-12 -35,-22 -83,2 -57,27 -110,56 -178,-1 -101,-84 -119,-32 -180,-50 -15,-5 -29,-9 -29,-33 1,-19 10,-40 13,-60 -23,3 -19,9 -30,38 -7,18 -15,41 -8,58 9,26 35,29 66,37 27,7 9,4 24,13 46,27 84,2 107,16 15,9 19,20 40,30 28,13 83,23 110,13 12,-4 10,-4 24,-5 52,-3 18,-14 51,4 21,11 65,7 83,2 15,-3 4,-6 24,0 69,22 58,30 93,-6 8,-9 9,-8 17,-20 12,-20 10,-31 5,-51z"/>
   <path class="fil5" d="M923 3870c10,1 22,-3 25,-10l-2 -104c-3,-122 -16,-133 -41,-226 -15,-56 -51,-141 -76,-199 -8,-19 -16,-34 -27,-55 -47,-94 -110,-150 -133,-200 -8,-19 -17,-35 -24,-56 -6,-18 -6,-47 -22,-57 -26,6 -13,31 -7,49 65,187 109,137 200,363 8,20 15,34 24,54 120,289 65,397 83,441z"/>
   <path class="fil5" d="M213 2439c-44,32 -65,175 -70,228 -2,20 4,93 9,109 2,10 5,14 7,23l22 76c10,29 21,65 30,94 10,34 22,61 35,94l52 137c6,17 -7,50 23,39 19,-7 14,-33 9,-46l-54 -135c-29,-67 -74,-213 -92,-285 -21,-80 1,-238 33,-291 9,-16 27,-35 -4,-43z"/>
   <path class="fil5" d="M3297 2066c18,31 18,18 33,12 44,-17 101,-8 144,3 -1,20 -26,44 -27,76 24,18 50,18 81,26 9,3 68,26 67,53 -1,18 -14,23 -6,42 7,13 23,25 35,36 12,11 24,24 36,37 8,7 13,11 17,19 6,13 3,13 5,26 4,19 16,27 26,43 6,10 9,12 14,21 40,65 30,86 28,132 14,-2 4,1 12,-9 1,0 6,-7 8,-10 10,-11 7,-7 7,-23 -1,-25 -2,-37 -11,-56l-23 -45c-8,-12 -27,-32 -31,-43 -10,-22 6,-24 -15,-50 -14,-15 -21,-24 -36,-39 -15,-17 -25,-21 -38,-35 -20,-20 1,-31 2,-58 -14,-20 -38,-38 -57,-49 -59,-37 -115,-8 -73,-71 9,-14 19,-19 19,-39 -16,-14 -14,-5 -37,-9 -18,-4 -32,-9 -52,-11 -33,-4 -67,3 -89,-1 3,-12 22,-46 -13,-36 -12,3 -11,13 -14,25 -4,17 -8,19 -12,33z"/>
   <path class="fil5" d="M2097 7977c7,-61 5,-127 3,-184 -3,-58 -24,-142 -47,-194 -7,-16 -29,-49 -33,-69 -2,-11 -2,-29 -6,-39 -37,-6 -26,46 -18,68 20,56 57,74 72,229 7,75 0,207 -13,285 -5,27 -21,79 -17,100l27 3c15,-21 29,-164 32,-199z"/>
   <path class="fil5" d="M981 7225c8,-16 9,-26 12,-46 2,-21 -1,-17 -14,-30 -13,-13 -25,-44 -32,-56 -31,-52 -31,-73 -17,-149 8,-46 54,-207 71,-254 3,-10 43,-65 11,-55 -34,10 -51,105 -64,142 -19,54 -34,109 -46,168 -15,72 -29,66 -1,121l44 88c4,7 11,23 13,31 4,16 -1,23 1,39l22 1z"/>
   <path class="fil5" d="M3108 5209c14,-8 26,0 22,-22 -1,-4 -11,-20 -14,-28l-68 -145c-11,-14 -9,-7 -14,-26l-30 -95c-2,-14 -3,-20 -6,-32 -5,-18 -4,-89 9,-116 22,-48 -28,-34 -38,30 -12,77 49,246 88,318 15,27 33,59 36,91 1,15 5,15 15,25z"/>
   <path class="fil5" d="M3312 3495c34,10 53,-39 100,-22 -6,54 -27,72 -65,124 -14,19 -25,38 -23,68 3,46 -6,52 12,67 64,-9 -30,-50 75,-179 40,-48 51,-142 -33,-111 -14,5 -26,10 -40,16 -16,6 -31,10 -26,37z"/>
   <path class="fil5" d="M1772 1408c-6,17 1,38 8,57 8,19 9,33 15,53 30,95 75,92 120,112 19,9 43,14 66,20 11,3 42,29 48,-6 5,-27 -25,-16 -58,-23 -47,-9 -109,-34 -132,-78 -11,-20 -16,-48 -24,-69 -5,-12 -8,-24 -12,-34 -4,-11 -10,-28 -17,-34l-14 2z"/>
   <path class="fil5" d="M30 1560c10,-30 6,-47 48,-67 24,-11 43,-25 61,-49 32,-43 66,-106 74,-173 -30,-6 -23,13 -52,82 -13,32 -30,61 -51,85 -19,21 -48,19 -77,47 -4,4 -28,33 -30,38 -8,20 7,37 27,37z"/>
   <path class="fil5" d="M1396 368c9,0 10,0 16,-7 17,-17 8,-40 -1,-58l-43 -64c-24,-26 -121,-78 -164,-70 -12,2 -32,12 -23,24 4,6 33,5 45,7 52,10 117,50 142,93 17,29 17,50 28,75z"/>
   <path class="fil5" d="M2178 639c7,11 10,19 26,21 23,-27 12,-150 8,-182 -3,-24 -15,-58 -24,-77 -4,-8 -37,-73 -46,-76 -9,-3 -22,0 -17,18 2,9 15,26 20,35 14,22 25,49 32,76 12,49 23,128 1,185z"/>
   <path class="fil5" d="M1202 6008c31,-5 19,-37 27,-84 6,-36 13,-70 24,-103 11,-31 20,-64 30,-94 9,-29 31,-63 30,-87 -10,-2 1,-1 -7,-1 0,0 -2,0 -3,0 -42,7 -86,239 -95,276 -6,22 -27,78 -6,93z"/>
   <path class="fil5" d="M459 796c-20,-14 -15,1 -53,-22 -36,-21 -98,-48 -131,-90 -37,-45 -78,-95 -82,-153 -1,-14 1,-17 -10,-24 -4,5 -9,1 -6,29 12,110 91,187 186,240 41,23 87,73 96,20z"/>
   <path class="fil5" d="M2486 1874c5,-17 11,-31 12,-49 -38,-15 -100,9 -114,33 -24,-7 -12,-12 -32,1 1,14 7,23 22,30 32,-4 42,-47 90,-37 -5,33 -23,2 -15,49 39,7 89,-17 120,-33 13,-7 26,-13 38,-20 13,-8 20,-30 -6,-27 -15,2 -49,47 -115,53z"/>
   <path class="fil5" d="M1963 377c32,-10 27,-36 26,-65 -2,-43 -23,-103 -38,-144 -6,-17 -30,-55 -42,-59 -14,-6 -24,6 -20,19 5,18 43,34 64,169 6,36 -18,60 10,80z"/>
   <path class="fil5" d="M3042 4320c-3,16 -3,44 18,41 14,-7 2,-1 12,-14 11,-13 28,-14 50,-34 53,-49 38,-33 85,-84 31,-34 48,-65 71,-73 16,-6 11,1 18,-11 -15,-9 -8,0 -18,-1 -20,-3 -25,-30 -47,18l-59 69c-4,3 -2,1 -6,5l-32 32c-32,30 -55,40 -92,52z"/>
   <path class="fil5" d="M2734 3144c-52,8 -66,102 24,90 67,-9 36,-100 -24,-90z"/>
   <path class="fil5" d="M3272 3526c-18,8 -37,41 -41,63 -4,22 18,60 39,55 18,-5 38,-34 43,-64 5,-26 -5,-71 -41,-54z"/>
   <path class="fil5" d="M1600 3074c-21,6 -43,30 -43,60 0,9 6,25 9,37 4,15 15,24 31,21 50,-8 53,-133 3,-118z"/>
   <path class="fil5" d="M2282 3429c-6,15 -4,20 1,33 32,11 92,-23 182,29 17,10 33,40 40,12 9,-33 -62,-51 -91,-63 -38,-15 -91,-11 -132,-11z"/>
   <path class="fil5" d="M1576 631c34,-48 -42,-96 -79,-45 -43,58 55,78 79,45z"/>
   <path class="fil5" d="M2126 3091c11,-13 12,-53 -6,-63 -27,-14 -49,-2 -61,16 -15,23 -10,53 9,63 19,10 53,-9 58,-16z"/>
   <path class="fil5" d="M1873 642c31,-44 -48,-86 -70,-42 -28,55 42,82 70,42z"/>
   <path class="fil5" d="M214 1789c-15,52 71,36 72,36 31,-1 78,-16 91,-32 10,-13 8,-37 -17,-27 -18,8 -26,34 -88,33 -23,-1 -40,-10 -58,-10z"/>
   <path class="fil5" d="M40 2768c-6,23 23,108 33,134 7,18 16,25 36,15 2,-13 -17,-56 -24,-72 -12,-30 -8,-51 -16,-80 -13,-4 -21,-1 -29,3z"/>
   <path class="fil5" d="M3803 2399c-4,26 25,32 43,98 4,16 0,30 4,43 7,4 15,7 22,-4 13,-20 -2,-52 -10,-71 -6,-14 -13,-25 -21,-40 -8,-18 -12,-31 -38,-26z"/>
   <path class="fil5" d="M252 777c12,-20 2,-25 -37,-55 -28,-22 -32,-31 -38,-65 -42,2 -19,48 1,66 24,23 40,31 53,43 9,8 6,9 21,11z"/>
   <path class="fil5" d="M1997 7857c4,-24 16,-50 -19,-47 -24,2 -13,29 -15,51 -1,20 -3,41 5,54l11 1c16,-14 14,-35 18,-59z"/>
   <path class="fil5" d="M2290 553c37,1 19,-88 16,-117 -10,-1 -26,0 -31,10 -5,11 5,18 7,33 1,15 0,64 8,74z"/>
   <path class="fil5" d="M1959 1706c5,26 58,37 81,48 11,6 21,6 26,-6 11,-26 -10,-12 -51,-34 -18,-11 -41,-30 -56,-8z"/>
   <path class="fil5" d="M3080 4929c5,25 17,79 43,84 6,-13 3,-22 -1,-33 -20,-57 3,-73 -32,-82 -10,13 -16,5 -10,31z"/>
   <path class="fil5" d="M100 1338c-19,6 -22,22 -44,29 -12,5 -19,1 -24,11 -6,12 8,19 18,21 19,3 34,-14 47,-25 5,-3 16,-12 19,-19 4,-9 5,-6 0,-13 -8,-13 -14,-4 -16,-4z"/>
   <path class="fil5" d="M1136 5844c15,-3 19,-23 26,-41 14,-38 10,-42 0,-54 -24,1 -24,15 -29,41 -3,17 -10,44 3,54z"/>
   <path class="fil5" d="M859 6750c-6,9 -53,66 -24,83 17,10 45,-63 45,-79l-21 -4z"/>
   <path class="fil5" d="M1006 3523c1,10 8,21 13,45 2,7 2,16 4,24 4,15 1,13 19,12 15,-31 -2,-81 -21,-92 -11,3 -5,3 -15,11z"/>
   <path class="fil5" d="M3325 4202c-7,4 -1,0 -8,7 -3,3 -4,4 -7,8 -6,7 -10,10 -17,15 -32,25 7,36 50,-2 21,-18 -3,-35 -18,-28z"/>
   <path class="fil2" d="M1235 654c-2,0 -4,0 -6,0 -4,-1 -8,-4 -9,-8 -13,12 -36,18 -50,27 -11,6 -20,12 -31,21 -17,13 -16,11 -40,5 -19,33 -34,6 -54,74 -72,237 36,254 -16,298 -26,-4 -21,-14 -30,-33 -7,-17 -10,-22 -13,-43 -5,-34 -14,-58 -11,-99 7,-89 69,-172 73,-199 -16,-12 -49,-32 -68,-36 5,28 20,18 28,40 -10,24 -31,13 -54,9 3,17 16,19 25,32 -9,23 -14,22 -37,24 -8,18 -16,28 -25,47 -26,52 -39,110 -28,166 31,168 63,162 69,177 0,19 -9,28 -24,32 -19,-7 -21,-26 -29,-41 -7,-13 -17,-24 -25,-41l-24 -75c-4,-27 -14,-53 -11,-81 4,-25 0,-34 0,-55 -1,-86 13,-82 21,-118 -41,22 -43,54 -75,48l-6 -24 37 -32c-11,-36 -90,-89 -124,-105 -87,-39 -136,21 -225,-35 -23,-14 -20,-1 -32,-24 -15,-30 -22,-28 -36,-69 -20,-63 -17,-109 -32,-163 -5,-15 -10,-25 -14,-38 -20,-58 -72,-127 -137,-141 -17,-3 -34,-6 -49,-3 -48,9 -80,26 -58,79 10,24 31,43 56,55 40,20 36,10 76,43 17,14 52,36 53,57 -11,-6 -9,-10 -21,-16 3,20 15,10 33,20 8,4 16,19 23,30 -4,2 1,0 -5,1l-4 0c8,11 31,39 13,57 -14,-8 -27,-67 -68,-86 -2,40 23,87 35,124 4,12 7,27 13,37 25,44 62,75 123,103 102,48 232,-3 273,133 3,8 3,12 4,21l8 18c8,-13 24,-21 41,-11 4,20 -4,11 -36,46 -28,32 -53,61 -77,99l-61 122c-9,22 -17,41 -25,64 -11,27 -7,56 -32,61 -38,9 -78,27 -115,39 -24,8 -41,6 -57,23 -27,26 -40,86 -56,127 -39,93 -107,139 -109,156 -2,15 15,44 26,51 23,-2 64,-38 76,-55 14,-20 17,-31 22,-55 14,-59 70,-20 -4,76 -12,16 -63,53 -66,61 47,18 66,18 95,-14 34,-38 28,-71 44,-101 62,-16 -9,92 -17,114 20,-5 21,-11 35,-19 33,-21 67,-51 82,-93 7,-20 0,-34 9,-49 6,-12 25,-17 34,-22 89,-45 129,-29 206,-124 10,-12 17,-18 25,-34 24,-51 46,-64 55,-130l4 5c32,39 -15,66 -14,105 56,16 124,38 182,33 67,-5 79,-5 149,-29l64 -31c17,-14 25,-57 29,-83 2,-12 4,-90 25,-72 17,13 -15,122 -12,153 2,21 -4,13 -14,25 -10,13 -21,47 -31,63 -23,40 -46,75 -68,114 -21,38 -46,74 -70,111 -21,33 -48,75 -72,107 -53,68 -105,132 -162,190 -36,36 -154,147 -172,172 10,-3 190,-121 235,-146 61,-33 175,-121 217,-170 82,-95 106,-151 157,-260 28,-60 72,-180 79,-249 8,-85 8,-50 20,-76 -31,-7 -73,-8 -94,-21 -2,-29 4,-20 20,-34 9,-8 18,-22 13,-34 -4,-2 -92,0 -120,-19 -3,-19 3,-25 10,-35 -34,-24 -46,-4 -45,-53 -23,-8 -109,-13 -83,-48 12,-17 116,-38 133,-60 -10,-8 -13,-7 -29,-10 -10,-2 -21,-4 -31,-6 -23,-5 -31,-3 -42,-22 -7,-30 69,-36 86,-46 25,-16 61,-41 53,-75 -3,-11 -4,-27 -4,-44z"/>
   <path class="fil7" d="M2391 8792c-47,-3 -93,-21 -137,-27 -46,-7 -94,-22 -138,-32 -45,-11 -98,-10 -139,-22 -43,-13 -87,-6 -127,-32 7,-73 11,-43 87,-41 21,0 57,10 79,14 25,5 244,54 263,66 15,9 -8,6 34,8 21,1 47,14 71,20 17,4 25,4 20,21 -2,6 -12,25 -13,25z"/>
   <path class="fil0" d="M1357 1159l-5 26 0 1c-2,9 -4,24 -7,51 -6,69 -50,189 -78,248 -51,110 -76,166 -157,260 -42,50 -156,138 -217,171 -45,24 -225,143 -235,146 18,-26 136,-137 172,-173 57,-58 109,-121 162,-190 24,-32 51,-73 72,-106 24,-37 49,-74 70,-111 22,-39 45,-74 68,-115 10,-16 21,-50 31,-62 9,-13 16,-4 14,-26 -3,-26 19,-107 16,-140l0 0 14 -69c15,0 27,1 28,1 5,13 -4,27 -14,35 -15,13 -21,5 -19,33 19,12 55,14 85,20z"/>
   <path class="fil0" d="M733 3994c7,-34 5,-95 2,-131 -1,-15 -4,-16 -5,-30l-14 -87c-4,-11 -7,-13 -12,-25 -9,-26 -13,-53 -25,-80l-36 -72c-33,-51 -72,-138 -89,-163l-127 -234c-9,-18 -15,-32 -22,-53 -4,-15 -15,-36 -21,-49l-29 -76c-9,-22 -28,-113 -33,-139 -23,-120 -16,-265 33,-380 17,-39 33,-80 53,-115 11,-20 19,-30 30,-49l34 -46c-3,14 -8,23 -12,35 -32,114 -40,85 -51,232 -7,88 3,162 15,240 6,46 11,48 20,83 3,10 4,13 6,26 6,36 39,107 50,156l198 404c4,9 3,16 7,26l24 47c35,79 65,168 80,257 12,68 21,180 7,244 -18,-1 -56,-17 -83,-21z"/>
  </g>
 </g>
</svg>
